<svg width="26" height="26" viewBox="0 0 26 26" fill="none" xmlns="http://www.w3.org/2000/svg">
    <path d="M24.68 14.8129C24.33 16.1829 23.55 17.3129 22.51 18.2329C22.08 18.6129 21.59 18.9229 21.21 19.3729C20.7 19.9729 20.2 20.5829 19.68 21.1729C18.89 22.0729 17.96 22.8229 16.97 23.4929C16.45 23.8429 15.84 24.0729 15.28 24.3729C14.66 24.7129 14 24.9229 13.3 24.9829C12.59 25.0529 11.91 24.9029 11.27 24.6229C10.64 24.3429 10 24.0529 9.41 23.6929C8.8 23.3129 8.22 22.8629 7.65 22.4229C6.8 21.7529 6.12 20.9229 5.45 20.0829C4.91 19.4029 4.29 18.8129 3.59 18.2829C2.86 17.7329 2.34 16.9829 1.89 16.1829C1.43 15.3529 1.19 14.4529 1.12 13.5129C1.07 12.9429 1.04 12.3729 1 11.8029C1 10.6629 1.18 9.55291 1.58 8.49291C1.72 8.13291 1.71 7.75291 1.66 7.38291C1.57 6.72291 1.45 6.06291 1.32 5.41291C1.14 4.51291 1.02 3.62291 1.11 2.70291C1.15 2.31291 1.13 1.91291 1.15 1.51291C1.15 1.45291 1.17 1.40291 1.19 1.34291C1.28 1.06291 1.39 0.982913 1.67 1.06291C2.45 1.27291 3.23 1.51291 4.01 1.72291C4.61 1.88291 5.16 2.13291 5.66 2.50291C6.1 2.82291 6.51 3.15291 6.93 3.48291C7.26 3.75291 7.62 3.96291 8.04 3.99291C8.32 4.01291 8.62 3.95291 8.9 3.91291C9.6 3.80291 10.3 3.86291 11 3.93291C11.6 4.00291 12.19 4.10291 12.79 4.15291C13.45 4.21291 14.09 4.06291 14.74 3.97291C15.63 3.84291 16.52 3.77291 17.42 3.97291C18.05 4.12291 18.57 3.86291 19.06 3.48291C19.5 3.14291 19.93 2.79291 20.38 2.46291C20.86 2.11291 21.39 1.86291 21.97 1.71291C22.75 1.51291 23.53 1.27291 24.31 1.05291C24.63 0.962913 24.75 1.04291 24.84 1.35291C24.87 1.45291 24.89 1.57291 24.89 1.68291C24.91 2.20291 24.96 2.73291 24.94 3.25291C24.92 3.83291 24.85 4.41291 24.77 4.99291C24.67 5.68291 24.51 6.37291 24.39 7.06291C24.29 7.65291 24.32 8.24291 24.55 8.82291C24.89 9.69291 24.99 10.6129 25 11.5329C25.01 12.6329 24.95 13.7229 24.68 14.7829V14.8129Z" stroke="black" stroke-width="2" stroke-miterlimit="10" stroke-linecap="square"/>
</svg>
